<svg width="135" height="22" viewBox="0 0 135 22" fill="none" xmlns="http://www.w3.org/2000/svg">
<g clip-path="url(#clip0_13029_8821)">
<mask id="mask0_13029_8821" style="mask-type:luminance" maskUnits="userSpaceOnUse" x="0" y="0" width="135" height="22">
<path d="M135 0H0V21.9051H135V0Z" fill="white"/>
</mask>
<g mask="url(#mask0_13029_8821)">
<path fill-rule="evenodd" clip-rule="evenodd" d="M8.10141 1.11204C11.9536 0.690047 27.9414 0.339648 27.491 4.49547C27.4834 4.98527 27.4531 5.50145 27.4038 6.05532C27.1617 10.7085 24.3993 15.3729 20.0439 18.5227C19.6651 18.7718 19.2801 19.0507 18.8849 19.3369C17.3853 20.423 15.7376 21.6162 13.7132 21.7027C11.1252 21.5708 8.06783 19.0349 6.11752 17.4172C5.9519 17.2798 5.79424 17.1491 5.64555 17.027C2.25124 14.009 0.404621 10.0642 0.0981124 6.05532C0.0901178 5.97356 0.0809737 5.88863 0.0715555 5.80116C-0.0349315 4.8121 -0.176483 3.49737 0.911687 2.77737C2.59496 1.79092 4.64228 1.5402 6.87638 1.26662C7.279 1.21731 7.68769 1.16727 8.10141 1.11204ZM16.0971 7.91758V8.87835L13.7472 7.29213L11.3973 8.87835V7.91758L13.7472 6.33136L16.0971 7.91758ZM6.82614 8.56187V11.0862V11.09L8.5971 12.2881C8.61601 12.2995 8.62735 12.3221 8.62735 12.3447V13.1246C8.62735 13.1811 8.55545 13.215 8.5025 13.1812L6.01257 11.497C5.99366 11.4856 5.9823 11.463 5.9823 11.4404V8.09844C5.9823 8.04192 6.05419 8.008 6.10717 8.04192L6.79587 8.50534C6.81478 8.51666 6.82614 8.53926 6.82614 8.56187ZM5.97851 12.7026C5.97851 12.6461 6.0504 12.6122 6.10338 12.6461L8.59331 14.3303C8.61222 14.3416 8.62359 14.3642 8.62359 14.3868V15.1668C8.62359 15.2232 8.55169 15.2572 8.49871 15.2232L6.00879 13.539C5.98987 13.5278 5.97851 13.5051 5.97851 13.4825V12.7026ZM18.9049 14.3303L21.3948 12.6461H21.3986C21.4516 12.6084 21.5272 12.6423 21.5272 12.7026V13.4825C21.5272 13.5051 21.5121 13.524 21.4932 13.539L19.0033 15.2232C18.9503 15.2609 18.8746 15.227 18.8746 15.1668V14.3868C18.8746 14.3642 18.886 14.3453 18.9049 14.3303ZM17.0658 3.84843L21.5197 6.85885L21.5272 6.86262L19.7222 8.08336V10.5588C19.7222 10.6153 19.692 10.668 19.6428 10.7019L17.9967 11.8134C17.9475 11.8473 17.9172 11.9001 17.9172 11.9566V15.8675C17.9172 15.9241 17.887 15.9767 17.8378 16.0107L13.8607 18.7008C13.8002 18.7423 13.7131 18.7423 13.6526 18.7008L9.67554 16.0107C9.62635 15.9767 9.59607 15.9241 9.59607 15.8675V11.9566C9.59607 11.9001 9.56582 11.8473 9.5166 11.8134L7.87055 10.7019C7.82136 10.668 7.79108 10.6153 7.79108 10.5588V8.08336L6.07313 6.91914C6.0277 6.889 6.0277 6.8287 6.07313 6.79858L10.4399 3.84843V8.91604L12.173 10.0877C12.2222 10.1217 12.2525 10.1745 12.2525 10.2309V14.0741C12.2525 14.1306 12.2828 14.1833 12.332 14.2173L13.6488 15.1102C13.7094 15.1516 13.7964 15.1516 13.8569 15.1102L15.1738 14.2173C15.223 14.1833 15.2533 14.1306 15.2533 14.0741V10.2309C15.2533 10.1745 15.2835 10.1217 15.3327 10.0877L17.0658 8.91604V3.84843ZM18.8708 10.1707V7.69529H18.8633L20.0969 6.86262L17.9059 5.3819V9.97852C17.9059 10.0351 17.8756 10.0877 17.8264 10.1217L16.1728 11.2408C16.1236 11.2746 16.0933 11.3274 16.0933 11.3839V15.0462C16.0933 15.1026 16.063 15.1554 16.0139 15.1894L13.8494 16.6512C13.7888 16.6926 13.7018 16.6926 13.6412 16.6512L11.4768 15.1894C11.4276 15.1554 11.3973 15.1026 11.3973 15.0462V11.3839C11.3973 11.3274 11.367 11.2746 11.3178 11.2408L9.66418 10.1217C9.61501 10.0877 9.58473 10.0351 9.58473 9.97852V5.3819L7.4808 6.80233C7.43537 6.83247 7.43537 6.89277 7.4808 6.92289L8.62735 7.69529V10.1707C8.62735 10.2272 8.65763 10.2799 8.70682 10.3139L10.3529 11.4254C10.4021 11.4592 10.4324 11.512 10.4324 11.5685V15.4794C10.4324 15.5359 10.4626 15.5887 10.5118 15.6226L13.645 17.7401C13.7056 17.7815 13.7926 17.7815 13.8532 17.7401L16.9864 15.6226C17.0355 15.5887 17.0658 15.5359 17.0658 15.4794V11.5685C17.0658 11.512 17.0961 11.4592 17.1453 11.4254L18.7914 10.3139C18.8405 10.2799 18.8708 10.2272 18.8708 10.1707ZM16.0971 5.8717V6.8287L13.7472 5.2425L11.3973 6.8287V5.8717L13.7472 4.28548L16.0971 5.8717ZM20.7061 8.50157L21.3948 8.03815V8.03438C21.4478 7.99671 21.5235 8.03063 21.5235 8.0909V11.4329C21.5235 11.4555 21.5083 11.4744 21.4894 11.4894L18.9995 13.1736C18.9465 13.2112 18.8708 13.1774 18.8708 13.117V12.3371C18.8708 12.3145 18.8822 12.2957 18.9011 12.2807L20.672 11.0824V8.5581C20.672 8.53549 20.6872 8.51666 20.7061 8.50157Z" fill="#F04E23"/>
<path d="M58.0051 7.82426C57.7364 7.57936 57.3731 7.3985 56.9305 7.28925C56.5104 7.18752 55.9767 7.13477 55.345 7.13477H48.6093C47.9848 7.13477 47.4589 7.18752 47.0352 7.28925C46.5923 7.3985 46.2327 7.57936 45.9603 7.82426C45.6842 8.07293 45.4873 8.4045 45.3778 8.80386C45.2717 9.18065 45.2188 9.64032 45.2188 10.1715V12.7261C45.2188 13.2648 45.2717 13.7246 45.3778 14.0975C45.4912 14.4931 45.6879 14.8209 45.9603 15.0696C46.2327 15.3146 46.5923 15.4916 47.0352 15.6008C47.455 15.7064 47.9848 15.7591 48.6093 15.7591H55.345C55.9767 15.7591 56.5104 15.7064 56.9305 15.6008C57.3731 15.4916 57.7325 15.3108 58.0051 15.0696C58.2776 14.8209 58.4742 14.4931 58.5879 14.0975C58.6937 13.7246 58.7506 13.2648 58.7506 12.7261V10.1715C58.7506 9.64407 58.6976 9.18442 58.5879 8.80386C58.4742 8.4045 58.2776 8.07293 58.0013 7.82426M47.5837 12.9861C47.5497 12.8316 47.5346 12.6281 47.5346 12.3833V10.5219C47.5346 10.2846 47.5497 10.0887 47.5837 9.94172C47.6101 9.81739 47.6594 9.7232 47.7313 9.65161C47.8032 9.5838 47.9093 9.53105 48.0416 9.5009C48.2043 9.46324 48.4277 9.44815 48.6962 9.44815H55.2767C55.5266 9.44815 55.7347 9.46698 55.8973 9.5009C56.0336 9.53105 56.1358 9.58003 56.2077 9.65161C56.2834 9.72697 56.3363 9.82116 56.3703 9.94927C56.4082 10.0962 56.4308 10.2883 56.4308 10.5219V12.3833C56.4308 12.6243 56.4121 12.8241 56.3703 12.9748C56.3363 13.0991 56.2834 13.2008 56.2152 13.2686C56.1433 13.3364 56.0411 13.3816 55.9049 13.408C55.7422 13.442 55.5302 13.457 55.2804 13.457H48.7001C48.4277 13.457 48.2043 13.442 48.0377 13.408C47.9015 13.3816 47.7995 13.3326 47.7277 13.2686C47.6594 13.2008 47.6101 13.1104 47.5837 12.9861Z" fill="#164387"/>
<path d="M60.0312 7.21766V9.3954L64.209 9.36902V15.7553H66.5435V9.34642L70.3619 9.19573V7.13477L60.0312 7.21766Z" fill="#164387"/>
<path d="M92.3344 13.0878L88.5581 7.13477H85.7578L90.7339 14.885C90.9041 15.1525 91.101 15.3636 91.3205 15.5142C91.555 15.6762 91.8804 15.7554 92.2966 15.7554C92.713 15.7554 93.0383 15.6724 93.2729 15.5142C93.4924 15.3636 93.6893 15.1525 93.8595 14.885L98.862 7.13477H96.0996L92.3344 13.0878Z" fill="#164387"/>
<path d="M117.979 13.3742C117.832 13.3364 117.714 13.2762 117.631 13.2008C117.552 13.1255 117.495 13.0275 117.461 12.9032C117.423 12.76 117.4 12.5791 117.4 12.3607L117.468 7.13477H115.156V12.7223C115.156 13.2611 115.209 13.7208 115.315 14.0938C115.429 14.4893 115.626 14.8172 115.902 15.0658C116.174 15.3108 116.534 15.4916 116.976 15.6008C117.397 15.7064 117.926 15.7591 118.551 15.7591H125.264L125.195 13.4382H118.641C118.373 13.4382 118.15 13.4194 117.979 13.3742Z" fill="#164387"/>
<path d="M37.4149 15.6127C36.8509 15.6127 36.5294 15.3489 36.359 15.1304L33.101 11.2346V15.7219H30.7812V7.93402C30.7812 7.45176 31.0197 7.19554 31.2202 7.06366C31.4587 6.90921 31.75 6.83008 32.0868 6.83008C32.3481 6.83008 32.5598 6.87154 32.7339 6.95441C32.908 7.04108 33.067 7.17294 33.2032 7.3538L37.4375 12.6286L41.4108 7.3538C41.5434 7.17671 41.6908 7.04483 41.8498 6.96196C42.0125 6.87529 42.2206 6.83008 42.4816 6.83008C42.8183 6.83008 43.11 6.90921 43.3481 7.06366C43.5526 7.19554 43.791 7.45553 43.791 7.93779V15.7596H41.4487V11.2346L38.4707 15.1304C38.2966 15.3565 37.9749 15.6202 37.4111 15.6202" fill="#164387"/>
<path d="M124.672 7.21766V9.3954L128.85 9.36902V15.7553H131.184V9.34642L135.002 9.19573V7.13477L124.672 7.21766Z" fill="#164387"/>
<path d="M84.3682 7.82426C84.0996 7.57936 83.7364 7.3985 83.2935 7.28925C82.8734 7.18752 82.34 7.13477 81.708 7.13477H74.9723C74.3517 7.13477 73.8221 7.18752 73.3982 7.28925C72.9556 7.3985 72.596 7.57936 72.3235 7.82426C72.0472 8.07293 71.8506 8.4045 71.7408 8.80386C71.6311 9.18065 71.5781 9.64032 71.5781 10.1715V12.7261C71.5781 13.2648 71.6311 13.7246 71.7408 14.0975C71.8506 14.4931 72.0511 14.8209 72.3235 15.0696C72.596 15.3146 72.9556 15.4916 73.3982 15.6008C73.8183 15.7064 74.3481 15.7591 74.9723 15.7591H81.708C82.34 15.7591 82.8734 15.7064 83.2935 15.6008C83.7364 15.4916 84.0957 15.3108 84.3682 15.0696C84.6406 14.8209 84.8375 14.4931 84.9509 14.0975C85.057 13.7246 85.1136 13.2648 85.1136 12.7261V10.1715C85.1136 9.64407 85.057 9.18442 84.9509 8.80386C84.8375 8.4045 84.6406 8.07293 84.3645 7.82426M73.9431 12.9861C73.9091 12.8316 73.894 12.6281 73.894 12.3833V10.5219C73.894 10.2846 73.9091 10.0887 73.9431 9.94172C73.9695 9.81739 74.0188 9.7232 74.0907 9.65161C74.1625 9.5838 74.2687 9.53105 74.401 9.5009C74.5637 9.46324 74.787 9.44815 75.0556 9.44815H81.6361C81.8821 9.44815 82.0902 9.46698 82.2567 9.5009C82.3929 9.53105 82.4952 9.58003 82.567 9.65161C82.6428 9.72697 82.6957 9.82116 82.7297 9.94927C82.7676 10.0962 82.7904 10.2883 82.7904 10.5219V12.3833C82.7904 12.6243 82.7715 12.8241 82.7297 12.9748C82.6957 13.0991 82.6428 13.2008 82.5746 13.2686C82.5027 13.3364 82.4005 13.3816 82.2643 13.408C82.1016 13.442 81.8896 13.457 81.64 13.457H75.0595C74.787 13.457 74.5637 13.442 74.3971 13.408C74.2609 13.3816 74.1589 13.3326 74.0868 13.2686C74.0188 13.2008 73.9695 13.1104 73.9431 12.9861Z" fill="#164387"/>
<path d="M112.556 7.82426C112.287 7.57936 111.924 7.3985 111.481 7.28925C111.061 7.18752 110.528 7.13477 109.896 7.13477H103.16C102.54 7.13477 102.01 7.18752 101.59 7.28925C101.147 7.3985 100.788 7.57936 100.515 7.82426C100.239 8.07293 100.042 8.4045 99.9322 8.80386C99.8264 9.18065 99.7734 9.64032 99.7734 10.1715V12.7261C99.7734 13.2648 99.8264 13.7246 99.9322 14.0975C100.046 14.4931 100.243 14.8209 100.515 15.0696C100.788 15.3146 101.147 15.4916 101.59 15.6008C102.01 15.7064 102.54 15.7591 103.16 15.7591H109.896C110.528 15.7591 111.061 15.7064 111.481 15.6008C111.924 15.4916 112.284 15.3108 112.556 15.0696C112.828 14.8209 113.025 14.4931 113.139 14.0975C113.245 13.7246 113.298 13.2648 113.298 12.7261V10.1715C113.298 9.64407 113.245 9.18442 113.139 8.80386C113.025 8.4045 112.828 8.07293 112.552 7.82426M102.135 12.9861C102.101 12.8316 102.085 12.6281 102.085 12.3833V10.5219C102.085 10.2846 102.101 10.0887 102.135 9.94172C102.161 9.81739 102.21 9.7232 102.282 9.65161C102.354 9.5838 102.46 9.53105 102.593 9.5009C102.755 9.46324 102.979 9.44815 103.247 9.44815H109.828C110.077 9.44815 110.286 9.46698 110.448 9.5009C110.584 9.53105 110.687 9.58003 110.759 9.65161C110.834 9.72697 110.887 9.82116 110.921 9.94927C110.959 10.0962 110.982 10.2883 110.982 10.5219V12.3833C110.982 12.6243 110.963 12.8241 110.921 12.9748C110.887 13.0991 110.834 13.2008 110.766 13.2686C110.694 13.3364 110.592 13.3816 110.456 13.408C110.289 13.442 110.081 13.457 109.831 13.457H103.251C102.979 13.457 102.755 13.442 102.589 13.408C102.453 13.3816 102.35 13.3326 102.278 13.2686C102.21 13.2008 102.161 13.1104 102.135 12.9861Z" fill="#164387"/>
<path d="M8.20677 1.22403C12.0161 0.807781 27.8245 0.461997 27.3804 4.56106C27.3729 5.04423 27.343 5.5542 27.2944 6.10055C27.0548 10.6906 24.3227 15.2922 20.0161 18.3993C18.22 19.5775 16.285 21.428 13.7555 21.5358C10.9791 21.3944 7.65645 18.4618 5.77808 16.9231C2.4218 13.946 0.595213 10.055 0.292058 6.10055C0.194768 5.10818 -0.0737788 3.63926 1.09743 2.86616C3.06183 1.71797 5.52779 1.58081 8.20677 1.22403ZM17.0688 8.9244L15.3557 10.0803C15.307 10.1137 15.2765 10.1655 15.2765 10.2212V14.0119C15.2765 14.0677 15.2469 14.1205 15.1983 14.1539L13.8965 15.0344C13.8367 15.0753 13.7498 15.0753 13.6899 15.0344L12.3881 14.1539C12.3395 14.1205 12.3099 14.0677 12.3099 14.0119V10.2212C12.3099 10.1655 12.2794 10.1137 12.2307 10.0803L10.5166 8.9244V3.92511L6.19913 6.8353C6.15421 6.86501 6.15421 6.92448 6.19913 6.95424L7.89775 8.10238V10.5445C7.89775 10.6001 7.92759 10.652 7.97598 10.6855L9.60411 11.7818C9.65277 11.8152 9.68234 11.8681 9.68234 11.9238V15.7817C9.68234 15.8374 9.71289 15.8892 9.76155 15.9227L13.6937 18.5768C13.7535 18.6175 13.8396 18.6173 13.8994 18.5768L17.8327 15.9227C17.8812 15.8892 17.9108 15.8373 17.9109 15.7817V11.9238C17.9109 11.8681 17.9415 11.8152 17.9901 11.7818L19.6173 10.6855C19.6658 10.652 19.6964 10.6002 19.6964 10.5445V8.10238L21.481 6.89859L21.4733 6.89477L17.0688 3.92511V8.9244ZM20.0663 6.89859L18.8467 7.71965H18.8544V10.1618C18.8544 10.2175 18.8238 10.2693 18.7752 10.3027L17.148 11.3991C17.0994 11.4326 17.0688 11.4853 17.0688 11.5411V15.3989C17.0687 15.4546 17.0391 15.5065 16.9906 15.54L13.8927 17.629C13.833 17.6698 13.7468 17.6696 13.687 17.629L10.5881 15.54C10.5396 15.5065 10.51 15.4545 10.5099 15.3989V11.5411C10.5099 11.4853 10.4794 11.4326 10.4307 11.3991L8.80356 10.3027C8.75492 10.2693 8.72438 10.2175 8.72438 10.1618V7.71965L7.59067 6.95806C7.54602 6.92835 7.54609 6.86888 7.59067 6.83912L9.67166 5.43774V9.97185C9.67166 10.0276 9.70131 10.0804 9.74997 10.1138L11.3849 11.2179C11.4335 11.2513 11.464 11.3031 11.464 11.3588V14.9712C11.464 15.0268 11.4937 15.0786 11.5423 15.1121L13.6832 16.5548C13.743 16.5955 13.8291 16.5956 13.8888 16.5548L16.0288 15.1121C16.0774 15.0787 16.1079 15.0269 16.1079 14.9712V11.3588C16.1079 11.3031 16.1377 11.2513 16.1861 11.2179L17.8211 10.1138C17.8698 10.0804 17.9002 10.0276 17.9002 9.97185V5.43774L20.0663 6.89859ZM21.3535 12.6039L18.8882 14.2652C18.8695 14.28 18.8582 14.2986 18.8582 14.3208V15.09C18.8582 15.1496 18.9323 15.1828 18.9847 15.1457L21.4473 13.4844C21.4658 13.4696 21.481 13.451 21.481 13.4287V12.6594C21.481 12.6 21.4059 12.5667 21.3535 12.6039ZM6.22904 12.6039C6.17667 12.5704 6.10545 12.6037 6.10545 12.6594V13.4287C6.10545 13.451 6.11672 13.4732 6.13539 13.4844L8.59788 15.1457C8.65025 15.179 8.72147 15.1458 8.72147 15.09V14.3208C8.72147 14.2987 8.71003 14.2764 8.69155 14.2652L6.22904 12.6039ZM6.23292 8.0621C6.18053 8.02864 6.10931 8.06198 6.10931 8.11773V11.4145C6.10936 11.4367 6.12055 11.459 6.13925 11.4701L8.60174 13.1314C8.65406 13.1646 8.72433 13.1314 8.72438 13.0758V12.3066C8.72438 12.2842 8.71314 12.262 8.69444 12.2509L6.94367 11.0692V8.57429C6.94352 8.55215 6.9323 8.52973 6.91373 8.51866L6.23292 8.0621ZM21.3496 8.05441L20.6688 8.51482C20.6501 8.52971 20.6351 8.54912 20.6351 8.57141V11.0615L18.8843 12.2432C18.8656 12.258 18.8544 12.2766 18.8544 12.2989V13.0681C18.8544 13.1275 18.9284 13.1608 18.9808 13.1237L21.4433 11.4624C21.462 11.4476 21.4771 11.429 21.4771 11.4067V8.11004C21.477 8.05067 21.4021 8.01728 21.3496 8.05441ZM11.464 7.93931V8.88701L13.7875 7.32256L16.1109 8.88701V7.93931L13.7875 6.37487L11.464 7.93931ZM11.464 5.92119V6.86504L13.7875 5.30059L16.1109 6.86504V5.92119L13.7875 4.35578L11.464 5.92119Z" fill="#F04E23"/>
<path fill-rule="evenodd" clip-rule="evenodd" d="M16.1361 9.03111V8.09473L13.7876 6.54881L11.439 8.09473V9.03111L13.7876 7.48516L16.1361 9.03111ZM6.87059 11.1829V8.72265C6.87059 8.70063 6.85922 8.67858 6.84031 8.66758L6.15203 8.2159C6.09907 8.18285 6.02723 8.2159 6.02723 8.27097V11.5281C6.02723 11.5501 6.03856 11.5721 6.05748 11.5832L8.54592 13.2246C8.59888 13.2576 8.67072 13.2246 8.67072 13.1695V12.4094C8.67072 12.3874 8.65939 12.3653 8.64047 12.3543L6.87059 11.1866V11.1829ZM6.14824 12.7031C6.09528 12.6701 6.02344 12.7031 6.02344 12.7582V13.5184C6.02344 13.5404 6.03478 13.5624 6.05369 13.5734L8.54213 15.2148C8.59509 15.2479 8.66696 15.2148 8.66696 15.1598V14.3997C8.66696 14.3776 8.6556 14.3556 8.63668 14.3446L6.14824 12.7031ZM21.4307 12.7031L18.9422 14.3446C18.9233 14.3592 18.912 14.3776 18.912 14.3997V15.1598C18.912 15.2185 18.9876 15.2516 19.0406 15.2148L21.529 13.5734C21.5479 13.5587 21.563 13.5404 21.563 13.5184V12.7582C21.563 12.6995 21.4874 12.6665 21.4345 12.7031M21.5555 7.06288L17.1042 4.12891V9.06781L15.3721 10.2098C15.323 10.2429 15.2928 10.2943 15.2928 10.3493V14.0949C15.2928 14.1499 15.2625 14.2013 15.2133 14.2344L13.8972 15.1047C13.8367 15.1451 13.7498 15.1451 13.6892 15.1047L12.3732 14.2344C12.324 14.2013 12.2937 14.1499 12.2937 14.0949V10.3493C12.2937 10.2943 12.2634 10.2429 12.2143 10.2098L10.4822 9.06781V4.12891L6.11799 7.00414C6.07261 7.03351 6.07261 7.09226 6.11799 7.12163L7.83494 8.2563V10.6689C7.83494 10.7239 7.86519 10.7753 7.91436 10.8083L9.55944 11.8916C9.60861 11.9247 9.63889 11.9761 9.63889 12.0311V15.8428C9.63889 15.8979 9.66917 15.9492 9.71833 15.9823L13.693 18.6041C13.7536 18.6445 13.8405 18.6445 13.901 18.6041L17.8758 15.9823C17.9249 15.9492 17.9551 15.8979 17.9551 15.8428V12.0311C17.9551 11.9761 17.9854 11.9247 18.0346 11.8916L19.6797 10.8083C19.7289 10.7753 19.7591 10.7239 19.7591 10.6689V8.2563L21.563 7.06656L21.5555 7.06288ZM18.9082 7.87807V10.2906C18.9082 10.3457 18.878 10.3971 18.8288 10.4302L17.1837 11.5134C17.1345 11.5464 17.1042 11.5978 17.1042 11.653V15.4645C17.1042 15.5196 17.074 15.5711 17.0249 15.604L13.8935 17.6678C13.8329 17.7082 13.746 17.7082 13.6854 17.6678L10.554 15.604C10.5049 15.5711 10.4747 15.5196 10.4747 15.4645V11.653C10.4747 11.5978 10.4444 11.5464 10.3953 11.5134L8.75015 10.4302C8.70098 10.3971 8.67072 10.3457 8.67072 10.2906V7.87807L7.52483 7.12531C7.47945 7.09593 7.47945 7.03719 7.52483 7.00779L9.6275 5.62343V10.1033C9.6275 10.1585 9.65778 10.2098 9.70695 10.2429L11.3596 11.3335C11.4087 11.3665 11.439 11.4179 11.439 11.4731V15.0423C11.439 15.0973 11.4693 15.1487 11.5185 15.1818L13.6817 16.6066C13.7422 16.6469 13.8291 16.6469 13.8897 16.6066L16.0529 15.1818C16.1021 15.1487 16.1323 15.0973 16.1323 15.0423V11.4731C16.1323 11.4179 16.1626 11.3665 16.2117 11.3335L17.8644 10.2429C17.9135 10.2098 17.9438 10.1585 17.9438 10.1033V5.62343L20.1335 7.06656L18.9007 7.87807H18.9082ZM16.1361 7.03351V6.10081L13.7876 4.55486L11.439 6.10081V7.03351L13.7876 5.48756L16.1361 7.03351ZM21.4307 8.21223L20.7424 8.6639C20.7235 8.67858 20.7083 8.69695 20.7083 8.71898V11.1792L18.9384 12.347C18.9196 12.3616 18.9082 12.38 18.9082 12.402V13.1621C18.9082 13.2209 18.9838 13.2539 19.0368 13.2173L21.5252 11.5758C21.5441 11.5612 21.5593 11.5428 21.5593 11.5208V8.26365C21.5593 8.2049 21.4837 8.17183 21.4307 8.20855" fill="white"/>
</g>
</g>
<defs>
<clipPath id="clip0_13029_8821">
<rect width="135" height="22" fill="white"/>
</clipPath>
</defs>
</svg>
