<svg version="1.1" viewBox="0.0 0.0 992.2572178477691 276.12860892388454" fill="none" stroke="none" stroke-linecap="square" stroke-miterlimit="10" xmlns:xlink="http://www.w3.org/1999/xlink" xmlns="http://www.w3.org/2000/svg"><clipPath id="p.0"><path d="m0 0l992.2572 0l0 276.1286l-992.2572 0l0 -276.1286z" clip-rule="nonzero"/></clipPath><g clip-path="url(#p.0)"><path fill="#000000" fill-opacity="0.0" d="m0 0l992.2572 0l0 276.1286l-992.2572 0z" fill-rule="evenodd"/><path fill="#e1123e" d="m117.47769 25.507874l-96.509186 55.732285l32.280838 18.640419l64.22835 -37.217846l0.06561279 0l64.162735 37.217846l32.280838 -18.640419l-96.509186 -55.732285z" fill-rule="evenodd"/><path fill="#971c2e" d="m213.98688 81.24016l-32.280838 18.640419l0 111.33071l32.280838 -18.509186l0 -111.461945z" fill-rule="evenodd"/><path fill="#72002e" d="m20.968504 81.24016l0 111.461945l96.5748 55.72966l0 -37.220474l-64.29396 -37.152237l0 -74.178474l-32.280838 -18.640419z" fill-rule="evenodd"/><path fill="#971c2e" d="m149.62466 192.56824l-32.08136 18.643051l0 37.220474l32.08136 -18.577438l0 -37.286087z" fill-rule="evenodd"/><path fill="#971c2e" d="m149.62466 118.39239l-32.08136 18.57743l0 37.089233l32.08136 -18.577423z" fill-rule="evenodd"/><path fill="#72002e" d="m85.396324 118.39239l0 37.08924l32.14698 18.577423l0 -37.089233z" fill-rule="evenodd"/><path fill="#e1123e" d="m117.543304 99.749344l-32.14698 18.643044l32.14698 18.57743l32.08136 -18.57743z" fill-rule="evenodd"/><path fill="#000000" d="m893.30707 95.83465c-4.0839844 0 -7.774231 0.59317017 -11.0026245 1.7769012c-3.2283325 1.1207352 -5.994751 2.900261 -8.43042 5.3359604c-2.3726807 2.3727036 -4.2834473 5.0734863 -5.601074 7.9711227c-1.1863403 2.9002686 -1.779541 6.125984 -1.779541 9.55381c0 6.916008 2.5039673 12.910767 7.380615 17.916016c4.939636 5.0078735 11.461914 7.5118103 19.433044 7.5118103l47.43048 0c0.98687744 0 1.9107666 0.19683838 2.7007446 0.52493286c0.79003906 0.39631653 1.5800781 0.9238739 2.3045044 1.713913c1.5170288 1.383194 2.1102295 2.9632416 2.1102295 5.0078735c0 1.9081268 -0.7270508 3.6220398 -2.1102295 5.005249c-1.5144653 1.5144348 -3.2940063 2.1732178 -5.4016113 2.1732178l-66.5354 0l-6.257202 17.7874l73.71649 0c8.102356 0 14.690308 -2.5039368 19.826782 -7.8398895c5.0734863 -5.1364746 7.708679 -11.330704 7.708679 -18.577423c0 -6.850403 -2.6351929 -12.910767 -7.708679 -17.984253c-4.939636 -5.005249 -11.527527 -7.509186 -19.826782 -7.509186l-45.322815 0c-1.7139282 0 -3.2939453 -0.6587982 -4.742798 -1.9107666c-1.1863403 -1.2519684 -1.9107666 -2.63517 -1.9107666 -4.2152176c0 -1.9107666 0.72442627 -3.4252014 1.9107666 -4.6115494c1.2493286 -1.3175888 2.7008057 -1.8451462 4.543335 -1.8451462l61.002625 0l6.257202 -17.784775z" fill-rule="evenodd"/><path fill="#000000" d="m647.98425 95.83465c-9.354309 0 -16.7323 2.7664032 -22.333313 8.167976c-5.4016113 5.401573 -8.233643 11.724411 -8.233643 19.1706l0 27.535439c0 3.6220398 0.72442627 7.047241 2.107666 10.209976c1.3175659 3.2283478 3.425171 6.259842 6.1915894 8.960632c2.8346558 2.7007751 6.128601 4.8083954 9.75061 6.1915894c3.8215332 1.3832092 7.9055176 2.0419922 12.51709 2.0419922l54.01837 0c7.312317 0 13.635193 -2.5039368 18.839905 -7.0498657c5.0078735 -4.6115417 7.640381 -10.144348 7.640381 -16.59842l0 -25.955383l-44.926453 0l-5.4016113 16.40158l27.86615 0l0 5.7978973c0 1.6456604 -0.19946289 3.0288696 -0.5275879 4.149597c-0.39630127 1.05513 -0.8555908 1.9763794 -1.5144043 2.7007904c-1.1863403 1.3175964 -3.6903076 1.9763794 -7.312317 1.9763794l-42.95276 0c-3.9527588 0 -7.312378 -1.1207275 -9.81366 -3.4252014c-2.6351929 -2.1732178 -3.9527588 -5.0734863 -3.9527588 -8.89238l0 -20.950134c0 -3.6220474 1.3175659 -6.587929 3.9527588 -9.023621c1.1837158 -1.1207352 2.5668945 -1.910759 4.149597 -2.5039368c1.6456909 -0.5931778 3.2283325 -0.921257 5.2703247 -0.921257l65.217896 0l6.1259766 -17.984253z" fill-rule="evenodd"/><path fill="#000000" d="m817.2861 113.8189c1.9763794 0 3.753296 0.32807922 5.467224 0.8556366c1.6456299 0.5931778 3.0288696 1.448822 4.3464355 2.5039368c2.5039673 2.173233 3.6903076 5.2021027 3.7559204 9.023628l0 21.015747c0 3.8188934 -1.1863403 6.784775 -3.7559204 8.89238c-1.3175659 1.1207428 -2.7008057 1.9107666 -4.3464355 2.5039368c-1.5827026 0.52757263 -3.4908447 0.92126465 -5.467224 0.92126465l-38.734863 0c-3.887146 0 -7.1811523 -1.1207275 -9.816284 -3.4252014c-2.56958 -2.107605 -3.887146 -5.0078735 -3.887146 -8.695526l0 -21.2126c0.06561279 -3.7532806 1.5144043 -6.719162 3.887146 -9.023628c2.5039062 -2.2414703 5.7296143 -3.3595734 9.816284 -3.3595734zm-44.532776 -17.984253c-9.288757 0 -16.7323 2.7664032 -22.333374 8.167976c-5.4015503 5.401573 -8.102356 11.724411 -8.102356 19.1706l0 27.535439c0 3.6220398 0.5932007 7.047241 1.9763794 10.209976c1.3832397 3.2283478 3.4908447 6.259842 6.1915894 8.960632c2.8346558 2.7007751 6.128662 4.8083954 9.816284 6.1915894c3.7559204 1.3832092 7.9711304 2.0419922 12.451477 2.0419922l50.131226 0c4.677185 0 8.892395 -0.65878296 12.517029 -2.0419922c3.8215332 -1.383194 6.9816284 -3.4908142 9.816284 -6.1915894c5.532837 -5.535446 8.233582 -11.858276 8.233582 -18.973755l0 -27.86615c0 -7.3779526 -2.7007446 -13.700783 -8.102356 -19.036743c-5.5354004 -5.401573 -13.044617 -8.167976 -22.464539 -8.167976z" fill-rule="evenodd"/><path fill="#000000" d="m323.34647 113.61942c4.0183716 0 7.312317 1.1207352 9.813629 3.4251938c2.5039368 2.2414703 3.8215332 5.204727 3.9527588 9.026253l0 21.278206c0 3.7532806 -1.3175659 6.78479 -3.9527588 8.958008c-2.5013123 2.3070831 -5.7952576 3.3595886 -9.813629 3.3595886l-3.887146 0l-5.5328064 -8.826782l-24.24411 0l5.7323 8.826782l-11.068237 0c-1.9763794 0 -3.887146 -0.19685364 -5.4671936 -0.7900238c-1.7139282 -0.6587982 -3.1627502 -1.448822 -4.4147034 -2.5695648c-2.5013123 -2.1732178 -3.8189087 -5.204727 -3.8189087 -8.958008l0 -21.278206c0.06561279 -3.887146 1.3832092 -6.9160156 3.8189087 -9.026253c2.5695496 -2.3044586 5.8635254 -3.4251938 9.881897 -3.4251938zm-44.59845 -17.784775c-9.288696 0 -16.863495 2.7664032 -22.333313 8.167976c-5.5328064 5.401573 -8.233597 11.724411 -8.233597 19.1706l0 27.535439c0 3.6220398 0.724411 7.047241 2.107605 10.209976c1.3175812 3.2283478 3.4252014 6.259842 6.125992 8.960632c2.9002686 2.7007751 6.128601 4.8083954 9.816254 6.1915894c3.6903076 1.3832092 7.9055176 2.0419922 12.517059 2.0419922l28.259857 0l6.32547 9.881897l24.37268 0l-6.519684 -9.881897c8.233612 -0.5275574 14.821533 -3.2283325 19.892395 -8.233582c5.535431 -5.535446 8.236237 -11.858276 8.236237 -18.973755l0 -27.86615c0 -7.3779526 -2.7008057 -13.700783 -8.102386 -19.036743c-5.404175 -5.401573 -12.913361 -8.167976 -22.333313 -8.167976z" fill-rule="evenodd"/><path fill="#000000" d="m427.8924 117.178474l19.960632 33.661415l-39.724426 0zm-12.057739 -21.343826l-49.27298 82.278206l25.427826 0l7.047241 -12.055115l57.839905 0l6.984253 12.055115l26.086609 0l-49.20999 -82.278206z" fill-rule="evenodd"/><path fill="#000000" d="m499.76117 95.83465l0 82.278206l22.661377 0l0 -63.965874l49.80316 0c1.2519531 0 2.5039673 0.19685364 3.6246948 0.5931778c0.98687744 0.39632416 1.9737549 1.1207352 2.7664185 1.910759c1.5800171 1.7112885 2.435669 3.6876678 2.435669 6.125984c0 2.3727036 -0.85565186 4.4147034 -2.5012817 5.994751c-1.7139282 1.7795258 -3.9527588 2.7007904 -6.522339 2.7007904l-46.246704 0l47.23358 46.64041l30.763794 0l-33.265076 -30.170593l5.4015503 0c8.102356 0 14.624695 -2.6351776 19.76117 -7.839905c5.204712 -5.204712 7.708618 -11.396317 7.708618 -18.44619c0 -6.9816284 -2.5039062 -13.041992 -7.708618 -18.24672c-5.1364746 -5.0734863 -11.724426 -7.5747986 -19.960632 -7.5747986z" fill-rule="evenodd"/></g></svg>